<svg xmlns="http://www.w3.org/2000/svg" viewBox="0 0 800 600" width="800" height="600" role="img">
<defs>
<filter id="g1" x="0" y="0" width="100%" height="100%">
<feTurbulence type="fractalNoise" baseFrequency="0.9" numOctaves="3" stitchTiles="stitch"/>
<feColorMatrix type="saturate" values="0"/>
</filter>
<radialGradient id="lt1" cx="38%" cy="26%" r="78%">
<stop offset="0%" stop-color="#FFFFFF" stop-opacity="0.55"/>
<stop offset="100%" stop-color="#FFFFFF" stop-opacity="0"/>
</radialGradient>
<filter id="sh1" x="-30%" y="-30%" width="160%" height="160%">
<feDropShadow dx="0" dy="10" stdDeviation="14" flood-color="#241F1B" flood-opacity="0.13"/>
</filter>
</defs>
<rect width="800" height="600" fill="#EAD5C6"/>
<rect width="800" height="600" fill="url(#lt1)"/><ellipse cx="400" cy="331" rx="240" ry="206.4" fill="rgba(36,31,27,0.10)"/><ellipse cx="400" cy="315" rx="232" ry="199.52" fill="#FBF6EC" filter="url(#sh1)"/><ellipse cx="400" cy="315" rx="212" ry="182.32" fill="none" stroke="#E4DACB" stroke-width="3"/><path d="M406.9 140.9 A198 174.24 0 0 1 597.9 308.9 L400.0 315.0 A0 0.0 0 0 0 400.0 315.0 Z" fill="#F2E9D8"/><circle cx="425.6" cy="273.3" r="15.5" fill="#EFE6D2" opacity="1.0"/><circle cx="457.7" cy="258.3" r="12.9" fill="#EFE6D2" opacity="1.0"/><circle cx="474.2" cy="211.6" r="15.4" fill="#EFE6D2" opacity="1.0"/><circle cx="497.5" cy="273.1" r="13.4" fill="#EFE6D2" opacity="1.0"/><circle cx="536.4" cy="221.0" r="13.1" fill="#EFE6D2" opacity="1.0"/><circle cx="441.6" cy="258.6" r="15.0" fill="#EFE6D2" opacity="1.0"/><circle cx="492.4" cy="260.9" r="10.5" fill="#EFE6D2" opacity="1.0"/><circle cx="520.0" cy="275.7" r="16.9" fill="#EFE6D2" opacity="1.0"/><circle cx="512.9" cy="264.2" r="15.3" fill="#EFE6D2" opacity="1.0"/><circle cx="443.0" cy="219.2" r="9.2" fill="#EFE6D2" opacity="1.0"/><path d="M597.9 321.1 A198 174.24 0 0 1 406.9 489.1 L400.0 315.0 A0 0.0 0 0 0 400.0 315.0 Z" fill="#8A5A3B"/><circle cx="489.2" cy="404.2" r="15.5" fill="#A97448" opacity="1.0"/><circle cx="459.8" cy="421.1" r="10.1" fill="#A97448" opacity="1.0"/><circle cx="498.7" cy="417.6" r="12.8" fill="#A97448" opacity="1.0"/><circle cx="453.8" cy="421.1" r="15.2" fill="#A97448" opacity="1.0"/><circle cx="508.4" cy="428.2" r="14.7" fill="#A97448" opacity="1.0"/><circle cx="528.7" cy="414.8" r="15.9" fill="#A97448" opacity="1.0"/><circle cx="500.7" cy="436.3" r="10.7" fill="#A97448" opacity="1.0"/><circle cx="516.2" cy="346.7" r="15.1" fill="#A97448" opacity="1.0"/><circle cx="495.5" cy="399.0" r="15.7" fill="#A97448" opacity="1.0"/><circle cx="426.6" cy="384.1" r="13.3" fill="#A97448" opacity="1.0"/><circle cx="459.2" cy="384.1" r="13.9" fill="#A97448" opacity="1.0"/><circle cx="468.1" cy="364.8" r="15.2" fill="#A97448" opacity="1.0"/><path d="M393.1 489.1 A198 174.24 0 0 1 202.1 321.1 L400.0 315.0 A0 0.0 0 0 0 400.0 315.0 Z" fill="#7E9152"/><circle cx="295.4" cy="395.8" r="14.3" fill="#93A867" opacity="1.0"/><circle cx="377.1" cy="380.0" r="11.8" fill="#93A867" opacity="1.0"/><circle cx="366.8" cy="418.1" r="15.2" fill="#93A867" opacity="1.0"/><circle cx="347.7" cy="398.0" r="16.5" fill="#93A867" opacity="1.0"/><circle cx="268.2" cy="397.7" r="14.5" fill="#93A867" opacity="1.0"/><circle cx="331.3" cy="437.7" r="16.6" fill="#93A867" opacity="1.0"/><circle cx="263.3" cy="400.0" r="8.7" fill="#93A867" opacity="1.0"/><circle cx="365.7" cy="388.5" r="8.1" fill="#93A867" opacity="1.0"/><circle cx="267.0" cy="408.3" r="9.7" fill="#93A867" opacity="1.0"/><path d="M202.1 308.9 A198 174.24 0 0 1 393.1 140.9 L400.0 315.0 A0 0.0 0 0 0 400.0 315.0 Z" fill="#C2452F"/><circle cx="283.0" cy="281.9" r="11.2" fill="#D9603F" opacity="1.0"/><circle cx="321.8" cy="233.7" r="13.9" fill="#D9603F" opacity="1.0"/><circle cx="353.0" cy="196.3" r="12.9" fill="#D9603F" opacity="1.0"/><circle cx="330.3" cy="199.7" r="15.4" fill="#D9603F" opacity="1.0"/><circle cx="340.8" cy="294.7" r="11.7" fill="#D9603F" opacity="1.0"/><circle cx="304.0" cy="223.8" r="9.3" fill="#D9603F" opacity="1.0"/><circle cx="346.0" cy="256.7" r="14.4" fill="#D9603F" opacity="1.0"/><circle cx="291.2" cy="243.7" r="17.0" fill="#D9603F" opacity="1.0"/><circle cx="266.5" cy="247.6" r="15.0" fill="#D9603F" opacity="1.0"/><rect width="800" height="600" filter="url(#g1)" opacity="0.05"/>
</svg>