<svg xmlns="http://www.w3.org/2000/svg" viewBox="0 0 800 600" width="800" height="600" role="img">
<defs>
<filter id="g1" x="0" y="0" width="100%" height="100%">
<feTurbulence type="fractalNoise" baseFrequency="0.9" numOctaves="3" stitchTiles="stitch"/>
<feColorMatrix type="saturate" values="0"/>
</filter>
<radialGradient id="lt1" cx="38%" cy="26%" r="78%">
<stop offset="0%" stop-color="#FFFFFF" stop-opacity="0.55"/>
<stop offset="100%" stop-color="#FFFFFF" stop-opacity="0"/>
</radialGradient>
<filter id="sh1" x="-30%" y="-30%" width="160%" height="160%">
<feDropShadow dx="0" dy="10" stdDeviation="14" flood-color="#241F1B" flood-opacity="0.13"/>
</filter>
</defs>
<rect width="800" height="600" fill="#DFE3DC"/>
<rect width="800" height="600" fill="url(#lt1)"/><ellipse cx="400" cy="324" rx="241" ry="192.8" fill="rgba(36,31,27,0.10)"/><ellipse cx="400" cy="310" rx="235" ry="188.0" fill="#FBF6EC" filter="url(#sh1)"/><ellipse cx="400" cy="310" rx="197" ry="157.60000000000002" fill="none" stroke="#E7DDCE" stroke-width="3"/><circle cx="320" cy="268" r="54" fill="#93A867"/><circle cx="320" cy="268" r="42" fill="#B9CC8E"/><circle cx="336.5" cy="246.9" r="9.1" fill="#F5EFE2" opacity="1.0"/><circle cx="343.1" cy="263.6" r="11.6" fill="#F5EFE2" opacity="1.0"/><circle cx="339.9" cy="264.5" r="11.5" fill="#F5EFE2" opacity="1.0"/><circle cx="302.0" cy="267.5" r="10.8" fill="#F5EFE2" opacity="1.0"/><circle cx="344.7" cy="266.3" r="10.5" fill="#F5EFE2" opacity="1.0"/><circle cx="309.3" cy="291.2" r="11.5" fill="#F5EFE2" opacity="1.0"/><circle cx="309.4" cy="269.6" r="9.2" fill="#F5EFE2" opacity="1.0"/><circle cx="292.8" cy="274.2" r="3.1" fill="#C2452F" opacity="1.0"/><circle cx="307.8" cy="250.3" r="3.4" fill="#C2452F" opacity="1.0"/><circle cx="315.6" cy="289.9" r="4.6" fill="#C2452F" opacity="1.0"/><circle cx="332.6" cy="272.2" r="4.4" fill="#C2452F" opacity="1.0"/><circle cx="330.4" cy="286.0" r="3.2" fill="#C2452F" opacity="1.0"/><circle cx="430" cy="250" r="54" fill="#93A867"/><circle cx="430" cy="250" r="42" fill="#B9CC8E"/><circle cx="450.8" cy="270.1" r="10.8" fill="#F5EFE2" opacity="1.0"/><circle cx="451.9" cy="267.2" r="9.4" fill="#F5EFE2" opacity="1.0"/><circle cx="432.5" cy="241.3" r="7.1" fill="#F5EFE2" opacity="1.0"/><circle cx="402.9" cy="260.5" r="7.0" fill="#F5EFE2" opacity="1.0"/><circle cx="426.9" cy="276.0" r="10.0" fill="#F5EFE2" opacity="1.0"/><circle cx="434.8" cy="247.0" r="7.1" fill="#F5EFE2" opacity="1.0"/><circle cx="449.5" cy="243.3" r="8.1" fill="#F5EFE2" opacity="1.0"/><circle cx="419.4" cy="258.4" r="3.3" fill="#C2452F" opacity="1.0"/><circle cx="408.0" cy="239.9" r="4.1" fill="#C2452F" opacity="1.0"/><circle cx="445.7" cy="231.9" r="3.0" fill="#C2452F" opacity="1.0"/><circle cx="415.5" cy="229.9" r="3.9" fill="#C2452F" opacity="1.0"/><circle cx="459.6" cy="247.9" r="3.6" fill="#C2452F" opacity="1.0"/><circle cx="360" cy="366" r="54" fill="#93A867"/><circle cx="360" cy="366" r="42" fill="#B9CC8E"/><circle cx="391.8" cy="358.2" r="7.3" fill="#F5EFE2" opacity="1.0"/><circle cx="351.0" cy="375.2" r="11.0" fill="#F5EFE2" opacity="1.0"/><circle cx="359.8" cy="379.5" r="7.2" fill="#F5EFE2" opacity="1.0"/><circle cx="387.2" cy="366.0" r="11.0" fill="#F5EFE2" opacity="1.0"/><circle cx="338.2" cy="360.7" r="8.3" fill="#F5EFE2" opacity="1.0"/><circle cx="374.1" cy="353.2" r="11.7" fill="#F5EFE2" opacity="1.0"/><circle cx="331.6" cy="378.7" r="7.8" fill="#F5EFE2" opacity="1.0"/><circle cx="357.0" cy="362.9" r="3.6" fill="#C2452F" opacity="1.0"/><circle cx="366.1" cy="372.3" r="4.5" fill="#C2452F" opacity="1.0"/><circle cx="355.5" cy="363.5" r="3.2" fill="#C2452F" opacity="1.0"/><circle cx="355.1" cy="365.9" r="3.4" fill="#C2452F" opacity="1.0"/><circle cx="364.3" cy="385.5" r="4.6" fill="#C2452F" opacity="1.0"/><circle cx="470" cy="350" r="54" fill="#93A867"/><circle cx="470" cy="350" r="42" fill="#B9CC8E"/><circle cx="471.9" cy="371.5" r="8.8" fill="#F5EFE2" opacity="1.0"/><circle cx="463.9" cy="344.7" r="7.1" fill="#F5EFE2" opacity="1.0"/><circle cx="469.0" cy="364.1" r="12.0" fill="#F5EFE2" opacity="1.0"/><circle cx="445.6" cy="344.5" r="9.0" fill="#F5EFE2" opacity="1.0"/><circle cx="471.5" cy="361.3" r="11.6" fill="#F5EFE2" opacity="1.0"/><circle cx="468.5" cy="326.1" r="7.3" fill="#F5EFE2" opacity="1.0"/><circle cx="468.1" cy="354.9" r="11.3" fill="#F5EFE2" opacity="1.0"/><circle cx="494.3" cy="355.2" r="3.3" fill="#C2452F" opacity="1.0"/><circle cx="452.9" cy="365.7" r="3.2" fill="#C2452F" opacity="1.0"/><circle cx="453.3" cy="338.3" r="4.2" fill="#C2452F" opacity="1.0"/><circle cx="464.3" cy="353.8" r="3.2" fill="#C2452F" opacity="1.0"/><circle cx="463.4" cy="355.6" r="4.0" fill="#C2452F" opacity="1.0"/><rect width="800" height="600" filter="url(#g1)" opacity="0.05"/>
</svg>