<svg xmlns="http://www.w3.org/2000/svg" viewBox="0 0 800 600" width="800" height="600" role="img">
<defs>
<filter id="g1" x="0" y="0" width="100%" height="100%">
<feTurbulence type="fractalNoise" baseFrequency="0.9" numOctaves="3" stitchTiles="stitch"/>
<feColorMatrix type="saturate" values="0"/>
</filter>
<radialGradient id="lt1" cx="38%" cy="26%" r="78%">
<stop offset="0%" stop-color="#FFFFFF" stop-opacity="0.55"/>
<stop offset="100%" stop-color="#FFFFFF" stop-opacity="0"/>
</radialGradient>
<filter id="sh1" x="-30%" y="-30%" width="160%" height="160%">
<feDropShadow dx="0" dy="10" stdDeviation="14" flood-color="#241F1B" flood-opacity="0.13"/>
</filter>
</defs>
<rect width="800" height="600" fill="#DDE2CE"/>
<rect width="800" height="600" fill="url(#lt1)"/><ellipse cx="400" cy="334" rx="256" ry="184.32" fill="rgba(36,31,27,0.10)"/><ellipse cx="400" cy="320" rx="250" ry="180.0" fill="#FBF6EC" filter="url(#sh1)"/><ellipse cx="400" cy="320" rx="220" ry="158.4" fill="#FBF6EC"/><circle cx="273.6" cy="397.6" r="15.9" fill="#DE9A4E" opacity="1.0"/><circle cx="516.6" cy="390.0" r="14.6" fill="#D9B471" opacity="1.0"/><circle cx="374.6" cy="203.2" r="14.3" fill="#D9B471" opacity="1.0"/><circle cx="322.0" cy="365.5" r="15.9" fill="#DE9A4E" opacity="1.0"/><circle cx="233.2" cy="351.7" r="13.9" fill="#D9B471" opacity="1.0"/><circle cx="405.1" cy="357.0" r="14.4" fill="#DE9A4E" opacity="1.0"/><circle cx="384.6" cy="440.7" r="16.2" fill="#D9B471" opacity="1.0"/><circle cx="399.1" cy="371.4" r="16.9" fill="#D9B471" opacity="1.0"/><circle cx="401.5" cy="408.7" r="17.7" fill="#DE9A4E" opacity="1.0"/><circle cx="308.5" cy="366.3" r="12.7" fill="#DE9A4E" opacity="1.0"/><circle cx="327.4" cy="245.7" r="12.1" fill="#D9B471" opacity="1.0"/><circle cx="385.4" cy="304.3" r="15.0" fill="#DE9A4E" opacity="1.0"/><circle cx="430.8" cy="290.1" r="15.0" fill="#DE9A4E" opacity="1.0"/><circle cx="285.8" cy="223.6" r="13.7" fill="#DE9A4E" opacity="1.0"/><circle cx="422.7" cy="414.7" r="13.7" fill="#DE9A4E" opacity="1.0"/><circle cx="338.9" cy="444.2" r="15.6" fill="#D9B471" opacity="1.0"/><circle cx="490.5" cy="338.5" r="15.0" fill="#DE9A4E" opacity="1.0"/><circle cx="496.2" cy="377.5" r="16.2" fill="#DE9A4E" opacity="1.0"/><circle cx="391.4" cy="454.9" r="14.0" fill="#D9B471" opacity="1.0"/><circle cx="376.2" cy="279.8" r="15.4" fill="#D9B471" opacity="1.0"/><circle cx="493.2" cy="383.4" r="13.6" fill="#DE9A4E" opacity="1.0"/><circle cx="343.0" cy="316.2" r="13.4" fill="#DE9A4E" opacity="1.0"/><circle cx="471.0" cy="443.3" r="11.6" fill="#93A867" opacity="1.0"/><circle cx="416.0" cy="325.0" r="14.7" fill="#7E9152" opacity="1.0"/><circle cx="466.2" cy="206.9" r="11.9" fill="#7E9152" opacity="1.0"/><circle cx="515.7" cy="235.4" r="12.2" fill="#7E9152" opacity="1.0"/><circle cx="491.4" cy="334.9" r="12.1" fill="#7E9152" opacity="1.0"/><circle cx="382.2" cy="354.8" r="15.7" fill="#93A867" opacity="1.0"/><circle cx="557.0" cy="376.7" r="11.0" fill="#7E9152" opacity="1.0"/><circle cx="454.1" cy="395.2" r="10.1" fill="#7E9152" opacity="1.0"/><circle cx="338.1" cy="392.0" r="13.9" fill="#7E9152" opacity="1.0"/><circle cx="504.3" cy="229.1" r="15.5" fill="#93A867" opacity="1.0"/><circle cx="326.9" cy="199.8" r="14.2" fill="#7E9152" opacity="1.0"/><circle cx="347.7" cy="374.0" r="11.3" fill="#93A867" opacity="1.0"/><circle cx="346.8" cy="263.4" r="14.4" fill="#D9603F" opacity="1.0"/><circle cx="386.1" cy="359.2" r="13.0" fill="#C2452F" opacity="1.0"/><circle cx="523.1" cy="234.6" r="14.2" fill="#C2452F" opacity="1.0"/><circle cx="474.7" cy="207.3" r="14.9" fill="#C2452F" opacity="1.0"/><circle cx="379.7" cy="339.7" r="12.7" fill="#C2452F" opacity="1.0"/><circle cx="499.7" cy="331.5" r="12.2" fill="#C2452F" opacity="1.0"/><circle cx="355.2" cy="227.9" r="13.9" fill="#C2452F" opacity="1.0"/><circle cx="537.1" cy="406.2" r="14.1" fill="#C2452F" opacity="1.0"/><circle cx="385.6" cy="234.8" r="13.2" fill="#D9603F" opacity="1.0"/><circle cx="405.5" cy="351.2" r="12.0" fill="#D9603F" opacity="1.0"/><circle cx="302.2" cy="363.6" r="9.8" fill="#F5EFE2" opacity="1.0"/><circle cx="311.9" cy="305.5" r="11.2" fill="#F5EFE2" opacity="1.0"/><circle cx="338.6" cy="409.9" r="11.9" fill="#F5EFE2" opacity="1.0"/><circle cx="468.2" cy="365.5" r="13.9" fill="#F5EFE2" opacity="1.0"/><circle cx="461.6" cy="434.4" r="13.7" fill="#F5EFE2" opacity="1.0"/><circle cx="267.5" cy="404.3" r="13.7" fill="#F5EFE2" opacity="1.0"/><circle cx="435.5" cy="335.3" r="9.1" fill="#F5EFE2" opacity="1.0"/><circle cx="372.2" cy="448.0" r="9.9" fill="#F5EFE2" opacity="1.0"/><circle cx="279.0" cy="394.5" r="10.3" fill="#F5EFE2" opacity="1.0"/><rect width="800" height="600" filter="url(#g1)" opacity="0.05"/>
</svg>