<svg xmlns="http://www.w3.org/2000/svg" viewBox="0 0 800 600" width="800" height="600" role="img">
<defs>
<filter id="g1" x="0" y="0" width="100%" height="100%">
<feTurbulence type="fractalNoise" baseFrequency="0.9" numOctaves="3" stitchTiles="stitch"/>
<feColorMatrix type="saturate" values="0"/>
</filter>
<radialGradient id="lt1" cx="38%" cy="26%" r="78%">
<stop offset="0%" stop-color="#FFFFFF" stop-opacity="0.55"/>
<stop offset="100%" stop-color="#FFFFFF" stop-opacity="0"/>
</radialGradient>
<filter id="sh1" x="-30%" y="-30%" width="160%" height="160%">
<feDropShadow dx="0" dy="10" stdDeviation="14" flood-color="#241F1B" flood-opacity="0.13"/>
</filter>
</defs>
<rect width="800" height="600" fill="#F3E3C3"/>
<rect width="800" height="600" fill="url(#lt1)"/><ellipse cx="400" cy="331" rx="240" ry="206.4" fill="rgba(36,31,27,0.10)"/><ellipse cx="400" cy="315" rx="232" ry="199.52" fill="#FBF6EC" filter="url(#sh1)"/><ellipse cx="400" cy="315" rx="212" ry="182.32" fill="none" stroke="#E4DACB" stroke-width="3"/><path d="M406.9 140.9 A198 174.24 0 0 1 586.1 255.4 L400.0 315.0 A0 0.0 0 0 0 400.0 315.0 Z" fill="#DE9A4E"/><circle cx="492.5" cy="265.9" r="10.0" fill="#C9822F" opacity="1.0"/><circle cx="408.9" cy="208.9" r="14.4" fill="#C9822F" opacity="1.0"/><circle cx="478.6" cy="186.5" r="12.3" fill="#C9822F" opacity="1.0"/><circle cx="414.5" cy="256.6" r="14.2" fill="#C9822F" opacity="1.0"/><circle cx="456.1" cy="210.2" r="15.7" fill="#C9822F" opacity="1.0"/><circle cx="444.7" cy="218.4" r="13.0" fill="#C9822F" opacity="1.0"/><circle cx="442.0" cy="236.8" r="15.8" fill="#C9822F" opacity="1.0"/><circle cx="484.1" cy="191.5" r="14.9" fill="#C9822F" opacity="1.0"/><circle cx="453.0" cy="217.7" r="11.7" fill="#C9822F" opacity="1.0"/><circle cx="509.8" cy="202.8" r="16.2" fill="#C9822F" opacity="1.0"/><path d="M590.3 267.0 A198 174.24 0 0 1 521.9 452.3 L400.0 315.0 A0 0.0 0 0 0 400.0 315.0 Z" fill="#F5EFE2"/><circle cx="516.6" cy="363.3" r="16.5" fill="#F1E7CF" opacity="1.0"/><circle cx="548.6" cy="328.4" r="10.7" fill="#F1E7CF" opacity="1.0"/><circle cx="547.3" cy="337.5" r="9.6" fill="#F1E7CF" opacity="1.0"/><circle cx="464.8" cy="317.7" r="10.8" fill="#F1E7CF" opacity="1.0"/><circle cx="498.1" cy="324.0" r="15.0" fill="#F1E7CF" opacity="1.0"/><circle cx="551.2" cy="327.4" r="9.0" fill="#F1E7CF" opacity="1.0"/><circle cx="485.6" cy="370.8" r="10.4" fill="#F1E7CF" opacity="1.0"/><circle cx="522.2" cy="345.5" r="9.4" fill="#F1E7CF" opacity="1.0"/><circle cx="446.9" cy="350.7" r="15.9" fill="#F1E7CF" opacity="1.0"/><path d="M510.7 459.5 A198 174.24 0 0 1 289.3 459.5 L400.0 315.0 A0 0.0 0 0 0 400.0 315.0 Z" fill="#7E9152"/><circle cx="387.3" cy="388.5" r="9.4" fill="#93A867" opacity="1.0"/><circle cx="428.2" cy="434.2" r="8.3" fill="#93A867" opacity="1.0"/><circle cx="426.9" cy="403.8" r="11.2" fill="#93A867" opacity="1.0"/><circle cx="391.4" cy="418.8" r="15.8" fill="#93A867" opacity="1.0"/><circle cx="409.0" cy="402.7" r="12.5" fill="#93A867" opacity="1.0"/><circle cx="344.9" cy="439.0" r="8.7" fill="#93A867" opacity="1.0"/><circle cx="437.5" cy="373.6" r="14.4" fill="#93A867" opacity="1.0"/><circle cx="428.7" cy="420.9" r="10.3" fill="#93A867" opacity="1.0"/><circle cx="427.7" cy="373.6" r="13.4" fill="#93A867" opacity="1.0"/><circle cx="447.7" cy="396.0" r="12.1" fill="#93A867" opacity="1.0"/><circle cx="451.7" cy="381.8" r="14.5" fill="#93A867" opacity="1.0"/><path d="M278.1 452.3 A198 174.24 0 0 1 209.7 267.0 L400.0 315.0 A0 0.0 0 0 0 400.0 315.0 Z" fill="#C2452F"/><circle cx="328.3" cy="376.5" r="9.9" fill="#D9603F" opacity="1.0"/><circle cx="332.8" cy="336.1" r="14.4" fill="#D9603F" opacity="1.0"/><circle cx="244.5" cy="369.0" r="9.0" fill="#D9603F" opacity="1.0"/><circle cx="333.7" cy="313.1" r="16.6" fill="#D9603F" opacity="1.0"/><circle cx="306.4" cy="318.9" r="16.1" fill="#D9603F" opacity="1.0"/><circle cx="265.7" cy="359.8" r="13.5" fill="#D9603F" opacity="1.0"/><circle cx="314.4" cy="386.7" r="12.7" fill="#D9603F" opacity="1.0"/><circle cx="337.4" cy="377.4" r="9.8" fill="#D9603F" opacity="1.0"/><circle cx="335.7" cy="378.8" r="15.2" fill="#D9603F" opacity="1.0"/><path d="M213.9 255.4 A198 174.24 0 0 1 393.1 140.9 L400.0 315.0 A0 0.0 0 0 0 400.0 315.0 Z" fill="#E9DCBB"/><circle cx="381.5" cy="276.8" r="11.9" fill="#E7DAB8" opacity="1.0"/><circle cx="342.5" cy="212.4" r="13.1" fill="#E7DAB8" opacity="1.0"/><circle cx="361.6" cy="253.1" r="10.6" fill="#E7DAB8" opacity="1.0"/><circle cx="305.3" cy="216.6" r="10.6" fill="#E7DAB8" opacity="1.0"/><circle cx="278.2" cy="217.2" r="9.5" fill="#E7DAB8" opacity="1.0"/><circle cx="332.0" cy="240.3" r="15.9" fill="#E7DAB8" opacity="1.0"/><circle cx="281.7" cy="226.8" r="16.9" fill="#E7DAB8" opacity="1.0"/><circle cx="302.6" cy="197.3" r="12.1" fill="#E7DAB8" opacity="1.0"/><circle cx="300.7" cy="202.4" r="13.3" fill="#E7DAB8" opacity="1.0"/><circle cx="351.1" cy="186.7" r="16.3" fill="#E7DAB8" opacity="1.0"/><circle cx="298.3" cy="232.4" r="12.4" fill="#E7DAB8" opacity="1.0"/><circle cx="385.7" cy="249.1" r="11.0" fill="#E7DAB8" opacity="1.0"/><rect width="800" height="600" filter="url(#g1)" opacity="0.05"/>
</svg>