<svg xmlns="http://www.w3.org/2000/svg" viewBox="0 0 800 600" width="800" height="600" role="img">
<defs>
<filter id="g1" x="0" y="0" width="100%" height="100%">
<feTurbulence type="fractalNoise" baseFrequency="0.9" numOctaves="3" stitchTiles="stitch"/>
<feColorMatrix type="saturate" values="0"/>
</filter>
<radialGradient id="lt1" cx="38%" cy="26%" r="78%">
<stop offset="0%" stop-color="#FFFFFF" stop-opacity="0.55"/>
<stop offset="100%" stop-color="#FFFFFF" stop-opacity="0"/>
</radialGradient>
<filter id="sh1" x="-30%" y="-30%" width="160%" height="160%">
<feDropShadow dx="0" dy="10" stdDeviation="14" flood-color="#241F1B" flood-opacity="0.13"/>
</filter>
</defs>
<rect width="800" height="600" fill="#EFE4CE"/>
<rect width="800" height="600" fill="url(#lt1)"/><rect x="250" y="124" width="300" height="420" rx="34" fill="rgba(36,31,27,0.10)"/><rect x="250" y="110" width="300" height="420" rx="34" fill="#FBF6EC" filter="url(#sh1)"/><rect x="272" y="136.0" width="256" height="73.6" fill="#FBF6EC"/><rect x="272" y="209.6" width="256" height="110.4" fill="#E6D3B0"/><rect x="272" y="320.0" width="256" height="73.6" fill="#B98B5E"/><rect x="272" y="393.6" width="256" height="110.4" fill="#FBF6EC"/><circle cx="381.3" cy="419.3" r="9.4" fill="#E8B14A" opacity="1.0"/><circle cx="363.8" cy="469.8" r="9.6" fill="#E8B14A" opacity="1.0"/><circle cx="442.4" cy="455.9" r="11.4" fill="#E8B14A" opacity="1.0"/><circle cx="373.7" cy="421.2" r="10.9" fill="#E8B14A" opacity="1.0"/><circle cx="384.1" cy="474.1" r="11.9" fill="#E8B14A" opacity="1.0"/><circle cx="425.7" cy="464.9" r="16.0" fill="#E8B14A" opacity="1.0"/><rect x="250" y="110" width="300" height="420" rx="34" fill="none" stroke="#E4DACB" stroke-width="6"/><rect x="280" y="150" width="26" height="300" rx="13" fill="#FFFFFF" opacity="0.35"/><rect width="800" height="600" filter="url(#g1)" opacity="0.05"/>
</svg>